<svg width="36" height="36" viewBox="0 0 36 36" fill="none" xmlns="http://www.w3.org/2000/svg">
<path d="M30.74 3.82058H26.86V1.00058C26.86 0.480581 26.4 -0.0194195 25.86 0.000580529C25.32 0.0205805 24.86 0.440581 24.86 1.00058V3.82058H10.86V1.00058C10.86 0.480581 10.4 -0.0194195 9.86 0.000580529C9.32 0.0205805 8.86 0.440581 8.86 1.00058V3.82058H5C3.67392 3.82058 2.40215 4.34736 1.46447 5.28505C0.526784 6.22273 0 7.4945 0 8.82058V30.8206C0 32.1467 0.526784 33.4184 1.46447 34.3561C2.40215 35.2938 3.67392 35.8206 5 35.8206H30.74C32.0661 35.8206 33.3378 35.2938 34.2755 34.3561C35.2132 33.4184 35.74 32.1467 35.74 30.8206V8.82058C35.74 7.4945 35.2132 6.22273 34.2755 5.28505C33.3378 4.34736 32.0661 3.82058 30.74 3.82058ZM33.74 30.8206C33.74 32.4806 32.4 33.8206 30.74 33.8206H5C3.34 33.8206 2 32.4806 2 30.8206V13.9806H33.74V30.8206ZM33.74 11.9806H2V8.82058C2 7.16058 3.34 5.82058 5 5.82058H8.86V7.00058C8.86 7.52058 9.32 8.02058 9.86 8.00058C10.4 7.98058 10.86 7.56058 10.86 7.00058V5.82058H24.86V7.00058C24.86 7.52058 25.32 8.02058 25.86 8.00058C26.4 7.98058 26.86 7.56058 26.86 7.00058V5.82058H30.74C32.4 5.82058 33.74 7.16058 33.74 8.82058V11.9806Z" fill="white"/>
</svg>
