<svg width="420" height="420" viewBox="0 0 420 420" fill="none" xmlns="http://www.w3.org/2000/svg">
<g filter="url(#filter0_d_7_48)">
<path d="M360 210C360 292.843 292.843 360 210 360C127.157 360 60 292.843 60 210C60 127.157 127.157 60 210 60C292.843 60 360 127.157 360 210Z" fill="#11313B"/>
<path fill-rule="evenodd" clip-rule="evenodd" d="M338.25 210.125C338.25 280.886 280.887 338.25 210.125 338.25C139.364 338.25 82 280.886 82 210.125C82 139.363 139.364 81.9999 210.125 81.9999C280.887 81.9999 338.25 139.363 338.25 210.125Z" fill="#153847"/>
<path fill-rule="evenodd" clip-rule="evenodd" d="M316.5 210.25C316.5 268.93 268.93 316.5 210.25 316.5C151.57 316.5 104 268.93 104 210.25C104 151.57 151.57 104 210.25 104C268.93 104 316.5 151.57 316.5 210.25Z" fill="#184053"/>
<path d="M294.75 210.375C294.75 256.974 256.974 294.75 210.375 294.75C163.776 294.75 126 256.974 126 210.375C126 163.776 163.776 126 210.375 126C256.974 126 294.75 163.776 294.75 210.375Z" fill="#1C475F"/>
</g>
<g filter="url(#filter1_d_7_48)">
<path d="M167.776 218V200.96H171.088V218H167.776ZM177.955 207.056V218H174.643V200.96H177.283L186.091 212.192V200.984H189.403V218H186.643L177.955 207.056ZM192.948 218V200.96H196.26V218H192.948ZM198.783 209.36C198.783 208.32 198.967 207.304 199.335 206.312C199.719 205.304 200.271 204.392 200.991 203.576C201.711 202.744 202.591 202.088 203.631 201.608C204.671 201.112 205.855 200.864 207.183 200.864C208.751 200.864 210.103 201.208 211.239 201.896C212.391 202.584 213.247 203.48 213.807 204.584L211.263 206.336C210.975 205.696 210.599 205.192 210.135 204.824C209.671 204.44 209.175 204.176 208.647 204.032C208.119 203.872 207.599 203.792 207.087 203.792C206.255 203.792 205.527 203.96 204.903 204.296C204.295 204.632 203.783 205.072 203.367 205.616C202.951 206.16 202.639 206.768 202.431 207.44C202.239 208.112 202.143 208.784 202.143 209.456C202.143 210.208 202.263 210.936 202.503 211.64C202.743 212.328 203.079 212.944 203.511 213.488C203.959 214.016 204.487 214.44 205.095 214.76C205.719 215.064 206.399 215.216 207.135 215.216C207.663 215.216 208.199 215.128 208.743 214.952C209.287 214.776 209.791 214.496 210.255 214.112C210.719 213.728 211.079 213.232 211.335 212.624L214.047 214.184C213.711 215.032 213.159 215.752 212.391 216.344C211.639 216.936 210.791 217.384 209.847 217.688C208.903 217.992 207.967 218.144 207.039 218.144C205.823 218.144 204.711 217.896 203.703 217.4C202.695 216.888 201.823 216.216 201.087 215.384C200.367 214.536 199.799 213.592 199.383 212.552C198.983 211.496 198.783 210.432 198.783 209.36ZM216.268 218V200.96H219.58V218H216.268ZM227.767 200.96H231.127L237.391 218H233.983L232.399 213.752H226.447L224.887 218H221.479L227.767 200.96ZM231.799 211.424L229.447 204.392L226.999 211.424H231.799ZM239.26 218V200.96H246.796C247.58 200.96 248.3 201.12 248.956 201.44C249.628 201.76 250.204 202.192 250.684 202.736C251.18 203.28 251.556 203.888 251.812 204.56C252.084 205.232 252.22 205.92 252.22 206.624C252.22 207.344 252.092 208.04 251.836 208.712C251.596 209.368 251.244 209.944 250.78 210.44C250.316 210.936 249.772 211.32 249.148 211.592L253.036 218H249.388L245.884 212.288H242.572V218H239.26ZM242.572 209.384H246.724C247.14 209.384 247.508 209.264 247.828 209.024C248.148 208.768 248.404 208.432 248.596 208.016C248.788 207.6 248.884 207.136 248.884 206.624C248.884 206.08 248.772 205.608 248.548 205.208C248.324 204.792 248.036 204.464 247.684 204.224C247.348 203.984 246.98 203.864 246.58 203.864H242.572V209.384Z" fill="#EFEFFA"/>
</g>
<defs>
<filter id="filter0_d_7_48" x="0" y="0" width="420" height="420" filterUnits="userSpaceOnUse" color-interpolation-filters="sRGB">
<feFlood flood-opacity="0" result="BackgroundImageFix"/>
<feColorMatrix in="SourceAlpha" type="matrix" values="0 0 0 0 0 0 0 0 0 0 0 0 0 0 0 0 0 0 127 0" result="hardAlpha"/>
<feOffset/>
<feGaussianBlur stdDeviation="30"/>
<feComposite in2="hardAlpha" operator="out"/>
<feColorMatrix type="matrix" values="0 0 0 0 0.937255 0 0 0 0 0.937255 0 0 0 0 0.980392 0 0 0 0.15 0"/>
<feBlend mode="normal" in2="BackgroundImageFix" result="effect1_dropShadow_7_48"/>
<feBlend mode="normal" in="SourceGraphic" in2="effect1_dropShadow_7_48" result="shape"/>
</filter>
<filter id="filter1_d_7_48" x="147.776" y="180.864" width="125.26" height="57.28" filterUnits="userSpaceOnUse" color-interpolation-filters="sRGB">
<feFlood flood-opacity="0" result="BackgroundImageFix"/>
<feColorMatrix in="SourceAlpha" type="matrix" values="0 0 0 0 0 0 0 0 0 0 0 0 0 0 0 0 0 0 127 0" result="hardAlpha"/>
<feOffset/>
<feGaussianBlur stdDeviation="10"/>
<feComposite in2="hardAlpha" operator="out"/>
<feColorMatrix type="matrix" values="0 0 0 0 1 0 0 0 0 1 0 0 0 0 1 0 0 0 0.42 0"/>
<feBlend mode="normal" in2="BackgroundImageFix" result="effect1_dropShadow_7_48"/>
<feBlend mode="normal" in="SourceGraphic" in2="effect1_dropShadow_7_48" result="shape"/>
</filter>
</defs>
</svg>
