<svg width="25" height="25" viewBox="0 0 25 25" fill="none" xmlns="http://www.w3.org/2000/svg">
<path d="M12.5 15C12.191 15 11.8889 15.0916 11.6319 15.2633C11.375 15.435 11.1747 15.679 11.0564 15.9646C10.9382 16.2501 10.9072 16.5642 10.9675 16.8673C11.0278 17.1704 11.1766 17.4488 11.3952 17.6674C11.6137 17.8859 11.8921 18.0347 12.1952 18.095C12.4983 18.1553 12.8124 18.1243 13.0979 18.0061C13.3835 17.8878 13.6275 17.6875 13.7992 17.4306C13.9709 17.1736 14.0625 16.8715 14.0625 16.5625C14.0625 16.1481 13.8979 15.7507 13.6049 15.4576C13.3118 15.1646 12.9144 15 12.5 15ZM12.5 13.125C12.8315 13.125 13.1495 12.9933 13.3839 12.7589C13.6183 12.5245 13.75 12.2065 13.75 11.875V8.125C13.75 7.79348 13.6183 7.47554 13.3839 7.24112C13.1495 7.0067 12.8315 6.875 12.5 6.875C12.1685 6.875 11.8505 7.0067 11.6161 7.24112C11.3817 7.47554 11.25 7.79348 11.25 8.125V11.875C11.25 12.2065 11.3817 12.5245 11.6161 12.7589C11.8505 12.9933 12.1685 13.125 12.5 13.125ZM12.5 0C10.0277 0 7.61099 0.733112 5.55538 2.10663C3.49976 3.48015 1.89761 5.43238 0.951512 7.71646C0.00541605 10.0005 -0.242126 12.5139 0.24019 14.9386C0.722505 17.3634 1.91301 19.5907 3.66117 21.3388C5.40933 23.087 7.63662 24.2775 10.0614 24.7598C12.4861 25.2421 14.9995 24.9946 17.2836 24.0485C19.5676 23.1024 21.5199 21.5002 22.8934 19.4446C24.2669 17.389 25 14.9723 25 12.5C24.9964 9.18591 23.6782 6.0086 21.3348 3.66519C18.9914 1.32177 15.8141 0.0036395 12.5 0ZM12.5 22.5C10.5222 22.5 8.5888 21.9135 6.9443 20.8147C5.29981 19.7159 4.01809 18.1541 3.26121 16.3268C2.50433 14.4996 2.3063 12.4889 2.69215 10.5491C3.07801 8.60929 4.03041 6.82746 5.42894 5.42893C6.82746 4.03041 8.60929 3.078 10.5491 2.69215C12.4889 2.3063 14.4996 2.50433 16.3268 3.26121C18.1541 4.01808 19.7159 5.29981 20.8147 6.9443C21.9135 8.58879 22.5 10.5222 22.5 12.5C22.4967 15.1512 21.4421 17.6928 19.5674 19.5674C17.6928 21.4421 15.1512 22.4967 12.5 22.5Z" fill="white"/>
</svg>
