<svg width="311" height="318" viewBox="0 0 311 318" fill="none" xmlns="http://www.w3.org/2000/svg">
<path d="M134.333 1.13333C99.2667 8.06667 73.2667 20.7333 50.4667 42.3333C15 75.8 -3.13335 123.267 1.13332 171.8C2.33332 185.533 6.06665 203.4 9.26665 210.333C10.6 213.133 10.3333 214.2 7.93332 216.733C4.19999 220.733 4.06665 226.467 7.66666 228.333C9.53332 229.4 30.2 229.667 74.0667 229.4L137.667 229L147.267 224.867C162.6 218.2 176.867 208.6 187.667 197.667C199.267 185.933 203.4 179 201.267 174.333C197.267 165.533 183.667 170.6 160.733 189.267C148.6 199.133 145.133 201 140.467 199.8C138.333 199.267 131.4 192.333 121.8 181.133C113.4 171.267 105.133 162.867 103.667 162.333C97.5333 160.333 93.5333 164.067 76.6 187.4C67.5333 200.067 58.8667 211.4 57.4 212.733C55.1333 214.733 52.6 215 40.2 214.733L25.6667 214.333L22.6 205C16.8667 187.667 15.2667 177.8 15.2667 158.333C15.1333 136.867 17.4 124.6 24.4667 106.867C42.3333 61.9334 76.4667 31.4 123.8 18.0667C130.467 16.2 137.4 15.8 155.667 15.8C182.6 15.8 189.267 17 208.467 26.3333C219.933 31.8 221.267 33 228.6 42.6C241 59 244.6 65.5334 249 79C251.267 85.9334 254.2 92.6 255.667 93.9334C261 98.3334 257.267 115.533 247.533 131.8C239 145.933 222.867 166.333 217.533 169.667C213.133 172.6 211.8 174.467 208.733 183.4C202.6 201.267 190.6 214.067 171.267 223.933C166.067 226.467 150.467 233 136.467 238.467C109.267 249.133 98.3333 254.6 85.6667 263.667C65.2667 278.333 59.2667 287.8 67.6667 292.333C71.1333 294.2 73.9333 292.867 81.6667 285.933C89.8 278.6 105.267 268.333 115.267 263.667C119.4 261.667 133.267 255.933 146.2 250.733C180.733 237 191.8 231 203.133 219.533C210.2 212.333 214.2 206.867 218.733 197.933C222.067 191.267 228.867 180.867 233.933 174.6C261.8 140.6 270.733 123.4 273.667 98.7334C274.067 94.4667 275 90.7334 275.667 90.3334C278.6 88.6 287.133 105.8 288.6 116.467C289.267 120.867 288.6 121.933 277.267 134.2C256.067 157 241.933 176.6 228.067 202.733C215.533 226.2 205.533 237.933 190.333 247.267C185.933 249.933 171.267 256.467 157.933 261.667C130.333 272.6 125.267 275.267 112.6 285.4C103.933 292.2 98.3333 299 98.3333 302.6C98.3333 305 103.267 309.667 105.667 309.667C106.733 309.667 111.933 305.8 117.133 301C128.333 290.867 140.867 284.067 165.133 275C206.867 259.133 220.867 247.133 241 209.667C251.667 189.8 258.867 179.133 273.133 161.8C286.733 145.133 292.2 139.667 294.2 140.867C296.067 142.067 296.067 155.667 294.2 159.267C293.4 160.733 289.133 166.2 284.867 171.4C276.333 181.533 273 189 269.133 206.733C263.933 230.467 256.733 244.467 242.6 258.333C228.733 271.667 217.133 277.8 184.6 288.6C152.867 299 138.333 306.467 138.333 312.2C138.333 317.267 141.533 318.067 156.733 317.267C198.867 314.867 231.4 301.133 259.533 274.333C286.067 248.867 302.467 217.8 308.333 181.4C316.2 132.467 299.267 81.2667 262.867 45C243.933 26.0667 220.067 12.0667 194.333 4.86667C183.533 1.93333 178.467 1.4 159.667 1C147.533 0.733334 136.2 0.866667 134.333 1.13333ZM115.133 197.8C121.267 205.4 126.333 212.333 126.333 213.267C126.333 214.6 120.867 215 102.467 215C88.7333 215 78.2 214.467 77.6667 213.667C77.2667 213 82.0667 205.533 88.3333 197C97.4 184.733 100.2 181.8 101.8 182.733C103 183.4 109 190.2 115.133 197.8Z" fill="white"/>
<path d="M181.267 27.8C179.667 28.8667 178.333 31.1333 178.333 32.8667C178.333 35.8 181.933 40.3333 184.333 40.3333C187.4 40.3333 203.267 52.3333 210.2 59.8C222.867 73.6667 229 89.5333 229 108.6C229 117.4 229.4 119.133 231.8 120.733C233.267 121.8 235.667 122.467 237 122.067C242.067 120.733 243 117.8 242.867 104.467C242.867 89.8 239.8 78.4667 232.067 64.3333C225.667 52.6 209.533 37 197.4 30.6C186.733 25 185.533 24.8667 181.267 27.8Z" fill="white"/>
<path d="M131 40.4667C123.933 42.4667 119.267 48.6 118.733 56.6C117.8 69.2667 125.933 77.2667 138.6 76.0667C145.667 75.2667 150.333 71.9333 153.933 65.1333C158.467 56.4667 152.2 43 142.6 40.3333C137 38.8667 136.467 38.8667 131 40.4667Z" fill="white"/>
<path d="M194.333 125.933C181.4 134.733 182.467 154.333 196.2 160.867C214.067 169.267 232.467 149.4 222.333 132.6C216.467 123.133 203.133 119.933 194.333 125.933Z" fill="white"/>
<path d="M70.4667 241.133C47.2667 244.467 34.0667 250.067 33.2667 256.733C32.3333 264.867 37.8 266.2 50.2 261C55 259 64.0667 257 73 255.8C81.1333 254.733 89.2667 252.867 91.1333 251.667C97.1333 247.667 93.9333 238.867 86.6 239.133C84.6 239.267 77.4 240.067 70.4667 241.133Z" fill="white"/>
</svg>
