<svg width="39" height="39" viewBox="0 0 39 39" fill="none" xmlns="http://www.w3.org/2000/svg">
<path fill-rule="evenodd" clip-rule="evenodd" d="M17 3.99855C13.5522 3.99855 10.2456 5.36819 7.80761 7.80617C5.36964 10.2441 4 13.5507 4 16.9986C4 20.4464 5.36964 23.753 7.80761 26.1909C10.2456 28.6289 13.5522 29.9986 17 29.9986C20.4478 29.9986 23.7544 28.6289 26.1924 26.1909C28.6304 23.753 30 20.4464 30 16.9986C30 13.5507 28.6304 10.2441 26.1924 7.80617C23.7544 5.36819 20.4478 3.99855 17 3.99855ZM3.83374e-08 16.9986C0.000230983 14.2877 0.648728 11.6163 1.89139 9.20707C3.13405 6.79785 4.93483 4.72074 7.14351 3.14903C9.35218 1.57731 11.9047 0.556574 14.5881 0.17197C17.2715 -0.212633 20.0079 0.0500526 22.5692 0.93811C25.1304 1.82617 27.4421 3.31385 29.3115 5.27703C31.1808 7.24021 32.5536 9.62196 33.3152 12.2236C34.0768 14.8252 34.2053 17.5712 33.6898 20.2326C33.1744 22.8939 32.0299 25.3934 30.352 27.5226L37.656 34.8266C38.0203 35.2038 38.2219 35.709 38.2173 36.2334C38.2128 36.7578 38.0025 37.2594 37.6316 37.6302C37.2608 38.001 36.7592 38.2113 36.2348 38.2159C35.7104 38.2205 35.2052 38.0189 34.828 37.6546L27.524 30.3506C25.0172 32.3265 22.0048 33.5569 18.8315 33.9008C15.6581 34.2446 12.452 33.6881 9.58019 32.295C6.70833 30.9019 4.28671 28.7283 2.59246 26.0232C0.898213 23.318 -0.000214287 20.1905 3.83374e-08 16.9986ZM15 9.99855C15 9.46812 15.2107 8.95941 15.5858 8.58434C15.9609 8.20927 16.4696 7.99855 17 7.99855C19.3869 7.99855 21.6761 8.94677 23.364 10.6346C25.0518 12.3224 26 14.6116 26 16.9986C26 17.529 25.7893 18.0377 25.4142 18.4128C25.0391 18.7878 24.5304 18.9986 24 18.9986C23.4696 18.9986 22.9609 18.7878 22.5858 18.4128C22.2107 18.0377 22 17.529 22 16.9986C22 15.6725 21.4732 14.4007 20.5355 13.463C19.5979 12.5253 18.3261 11.9986 17 11.9986C16.4696 11.9986 15.9609 11.7878 15.5858 11.4128C15.2107 11.0377 15 10.529 15 9.99855Z" fill="white"/>
</svg>
