<svg width="40" height="40" viewBox="0 0 40 40" fill="none" xmlns="http://www.w3.org/2000/svg">
<path fill-rule="evenodd" clip-rule="evenodd" d="M35.102 19.5928C35.1032 22.959 33.9485 26.2236 31.831 28.8405C29.7136 31.4574 26.7618 33.268 23.4694 33.9693C20.177 34.6706 16.7436 34.2201 13.7435 32.6933C10.7434 31.1665 8.35854 28.6559 6.98775 25.5813L2.44571 27.4262C4.24628 31.5518 7.41235 34.9317 11.4117 36.9976C15.411 39.0635 19.9996 39.6895 24.4061 38.7704C28.8127 37.8512 32.7684 35.4429 35.6083 31.9504C38.4481 28.4579 39.9989 24.0941 40 19.5928C40.0002 15.5037 38.721 11.5171 36.3416 8.1916C33.9623 4.86611 30.602 2.36843 26.7318 1.04861C22.8617 -0.271211 18.6755 -0.347024 14.7601 0.831796C10.8446 2.01062 7.39617 4.38499 4.89796 7.62214V1.63357H0V14.6948L2.44898 17.1438H13.8776V12.2458H7.68C9.29667 9.44311 11.7932 7.25237 14.7822 6.01355C17.7712 4.77473 21.0855 4.55711 24.2108 5.39445C27.3362 6.23179 30.0977 8.07727 32.067 10.6445C34.0363 13.2118 35.1031 16.3572 35.102 19.5928Z" fill="white"/>
</svg>
