<svg width="76" height="69" viewBox="0 0 76 69" fill="none" xmlns="http://www.w3.org/2000/svg">
<path d="M37.8902 68.192C36.9685 68.192 36.073 68.0202 35.2038 67.6766C34.3346 67.3331 33.5692 66.8177 32.9077 66.1305L8.8001 41.9229H17.2537L37.1692 61.8537C37.304 61.987 37.4219 62.0704 37.523 62.1037C37.6241 62.137 37.7421 62.1537 37.8768 62.1537C38.0116 62.1537 38.1296 62.137 38.2307 62.1037C38.3318 62.0704 38.4497 61.987 38.5845 61.8537L64.5152 35.8615C66.2793 34.0974 67.6319 32.0691 68.5729 29.7768C69.514 27.4845 69.9717 25.1486 69.946 22.7691C69.8383 18.1691 68.3435 14.2447 65.4614 10.996C62.5794 7.74726 59.0153 6.1229 54.7691 6.1229C52.6512 6.1229 50.6047 6.54253 48.6298 7.3818C46.6548 8.22113 44.9397 9.4451 43.4845 11.0537L40.3229 14.4537C40.0152 14.8281 39.646 15.1063 39.2152 15.2883C38.7845 15.4704 38.3429 15.5614 37.8906 15.5614C37.4382 15.5614 36.9858 15.462 36.5335 15.2632C36.0812 15.0644 35.6854 14.7946 35.3461 14.4537L32.1845 11.0537C30.7332 9.44343 29.0294 8.19856 27.0729 7.3191C25.1165 6.43956 23.0588 5.9998 20.8999 5.9998C17.3512 5.9998 14.2665 7.18186 11.646 9.546C9.02547 11.9101 7.287 14.8563 6.4306 18.3845H0.3077C1.28717 13.1538 3.6615 8.782 7.4307 5.2692C11.1999 1.7564 15.6896 0 20.8999 0C23.8691 0 26.6934 0.594868 29.3729 1.7846C32.0524 2.97433 34.4408 4.66406 36.5382 6.8538L37.8845 8.277L39.1538 6.9307C41.2359 4.71537 43.623 3.0064 46.3153 1.8038C49.0076 0.601263 51.8256 0 54.7691 0C60.7178 0 65.7241 2.23587 69.7882 6.7076C73.8523 11.1794 75.8844 16.5332 75.8844 22.7691C75.8844 25.9588 75.2921 29.0345 74.1074 31.996C72.9228 34.9575 71.1843 37.605 68.892 39.9383L42.7613 66.1305C42.0742 66.8177 41.3209 67.3331 40.5016 67.6766C39.6823 68.0202 38.8119 68.192 37.8902 68.192ZM37.423 33.1536H0V27.1538H53.3845C54.7742 27.1538 55.955 26.6679 56.9269 25.6961C57.8987 24.7242 58.3846 23.5434 58.3846 22.1537C58.3846 20.764 57.8987 19.5832 56.9269 18.6113C55.955 17.6395 54.7742 17.1536 53.3845 17.1536C52.4255 17.1536 51.5473 17.3908 50.7499 17.8652C49.9524 18.3395 49.364 19.0177 48.9845 19.8998L43.1308 18.2998C43.941 16.1614 45.2717 14.4358 47.123 13.123C48.9743 11.8102 51.0614 11.1538 53.3845 11.1538C56.44 11.1538 59.0372 12.2228 61.1761 14.3608C63.315 16.4988 64.3844 19.0949 64.3844 22.1492C64.3844 25.2035 63.315 27.8011 61.1761 29.9421C59.0372 32.0831 56.44 33.1536 53.3845 33.1536H46.9151C47.3716 33.8972 47.7306 34.6754 47.9921 35.4883C48.2536 36.3011 48.3844 37.1896 48.3844 38.1537C48.3844 41.2092 47.315 43.8064 45.1761 45.9453C43.0372 48.0842 40.44 49.1536 37.3845 49.1536C35.0614 49.1536 32.9743 48.4972 31.123 47.1844C29.2717 45.8716 27.941 44.146 27.1308 42.0076L32.9845 40.4076C33.364 41.2897 33.9524 41.9679 34.7499 42.4422C35.5473 42.9166 36.4255 43.1538 37.3845 43.1538C38.7742 43.1538 39.955 42.6679 40.9269 41.6961C41.8987 40.7242 42.3846 39.5434 42.3846 38.1537C42.3846 36.764 41.9051 35.5832 40.9461 34.6113C39.9871 33.6395 38.8127 33.1536 37.423 33.1536Z" fill="white"/>
</svg>
