<svg width="31" height="28" viewBox="0 0 31 28" fill="none" xmlns="http://www.w3.org/2000/svg">
<path d="M15.296 25.796C21.095 25.796 25.796 21.095 25.796 15.296C25.796 9.49702 21.095 4.79601 15.296 4.79601C9.49703 4.79601 4.79602 9.49702 4.79602 15.296C4.79602 21.095 9.49703 25.796 15.296 25.796Z" stroke="white" stroke-width="3"/>
<path d="M6.2435 2C5.22591 2.27254 4.298 2.80819 3.5531 3.5531C2.80819 4.298 2.27254 5.22591 2 6.2435M24.3485 2C25.3661 2.27254 26.294 2.80819 27.0389 3.5531C27.7838 4.298 28.3195 5.22591 28.592 6.2435M15.296 9.296V14.921C15.296 15.128 15.464 15.296 15.671 15.296H19.796" stroke="white" stroke-width="3" stroke-linecap="round"/>
</svg>
