<svg width="50" height="50" viewBox="0 0 50 50" fill="none" xmlns="http://www.w3.org/2000/svg">
<path d="M15.1316 34.8683H34.8683V15.1316H15.1316V34.8683ZM25.0043 49.9998C21.5466 49.9998 18.2965 49.3437 15.2541 48.0314C12.2116 46.7191 9.56504 44.9382 7.31447 42.6887C5.06386 40.4391 3.28213 37.7937 1.96928 34.7525C0.656425 31.7115 0 28.462 0 25.0043C0 21.5466 0.65614 18.2965 1.96842 15.2541C3.2807 12.2116 5.06162 9.56504 7.31118 7.31447C9.56078 5.06386 12.2062 3.28213 15.2473 1.96928C18.2884 0.656428 21.5378 0 24.9955 0C28.4532 0 31.7033 0.656143 34.7458 1.96842C37.7883 3.2807 40.4348 5.06162 42.6854 7.31118C44.936 9.56078 46.7177 12.2062 48.0306 15.2473C49.3434 18.2884 49.9998 21.5378 49.9998 24.9955C49.9998 28.4532 49.3437 31.7033 48.0314 34.7458C46.7191 37.7883 44.9382 40.4348 42.6887 42.6854C40.4391 44.936 37.7937 46.7177 34.7525 48.0306C31.7115 49.3434 28.462 49.9998 25.0043 49.9998ZM24.9999 46.0525C30.8771 46.0525 35.8552 44.0131 39.9341 39.9341C44.0131 35.8552 46.0525 30.8771 46.0525 24.9999C46.0525 19.1227 44.0131 14.1447 39.9341 10.0657C35.8552 5.98677 30.8771 3.9473 24.9999 3.9473C19.1227 3.9473 14.1447 5.98677 10.0657 10.0657C5.98677 14.1447 3.9473 19.1227 3.9473 24.9999C3.9473 30.8771 5.98677 35.8552 10.0657 39.9341C14.1447 44.0131 19.1227 46.0525 24.9999 46.0525Z" fill="white"/>
</svg>
