<svg width="18" height="28" viewBox="0 0 18 28" fill="none" xmlns="http://www.w3.org/2000/svg">
<path d="M8.97974 0C7.16107 0.00409512 5.3863 0.559079 3.8893 1.59183C2.3923 2.62457 1.24329 4.08662 0.593693 5.78533C-0.0559076 7.48403 -0.175628 9.33969 0.250308 11.1078C0.676244 12.8759 1.62785 14.4735 2.97974 15.69V28L8.97974 24L14.9797 28V15.69C16.3316 14.4735 17.2832 12.8759 17.7092 11.1078C18.1351 9.33969 18.0154 7.48403 17.3658 5.78533C16.7162 4.08662 15.5672 2.62457 14.0702 1.59183C12.5732 0.559079 10.7984 0.00409512 8.97974 0ZM12.9797 24.26L10.0897 22.34L8.97974 21.6L7.86974 22.34L4.97974 24.26V17.05C6.22023 17.6759 7.59029 18.0019 8.97974 18.0019C10.3692 18.0019 11.7392 17.6759 12.9797 17.05V24.26ZM13.8697 14C12.7132 15.1291 11.2017 15.8232 9.59158 15.9644C7.98151 16.1057 6.37216 15.6854 5.03671 14.775C3.70126 13.8646 2.72201 12.5201 2.26518 10.9697C1.80834 9.41939 1.90208 7.75872 2.53048 6.26962C3.15888 4.78053 4.28322 3.55477 5.71264 2.80041C7.14206 2.04606 8.78848 1.80959 10.3724 2.13115C11.9564 2.45271 13.3802 3.31249 14.4023 4.56454C15.4244 5.81658 15.9818 7.38374 15.9797 9C15.9786 9.93191 15.7913 10.8542 15.429 11.7128C15.0667 12.5714 14.5366 13.349 13.8697 14Z" fill="white"/>
</svg>
