<svg width="70" height="61" viewBox="0 0 70 61" fill="none" xmlns="http://www.w3.org/2000/svg">
<path d="M13.8922 60.8459C12.1486 60.8459 10.6794 60.2741 9.4846 59.1305C8.28973 57.987 7.6923 56.5434 7.6923 54.7998C7.6923 53.5793 8.041 52.4678 8.7384 51.4652C9.43587 50.4627 10.3487 49.7332 11.4768 49.2768L27.6923 42.846V30.8458C23.5025 35.7638 19.223 39.3587 14.8538 41.6305C10.4846 43.9023 5.53333 45.1792 0 45.4613V39.423C4.30253 39.2948 8.27173 38.2845 11.9076 36.3922C15.5435 34.4999 18.8615 31.8204 21.8615 28.3537L27.2615 22.0307C27.9589 21.2256 28.7768 20.6089 29.7153 20.1807C30.6538 19.7525 31.6461 19.5384 32.6922 19.5384H36.6922C37.7383 19.5384 38.7306 19.7525 39.6691 20.1807C40.6076 20.6089 41.4255 21.2256 42.1229 22.0307L47.5229 28.3537C50.5229 31.8204 53.8409 34.4999 57.4768 36.3922C61.1127 38.2845 65.0819 39.2948 69.3844 39.423V45.4613C63.8511 45.1792 58.8998 43.9023 54.5306 41.6305C50.1614 39.3587 45.8819 35.7638 41.6921 30.8458V42.846L57.9076 49.2768C59.0357 49.7332 59.9485 50.4627 60.646 51.4652C61.3434 52.4678 61.6921 53.5793 61.6921 54.7998C61.6921 56.5434 61.0947 57.987 59.8998 59.1305C58.705 60.2741 57.2358 60.8459 55.4922 60.8459H26.6922V59.5382C26.6922 57.8818 27.2012 56.5446 28.2191 55.5267C29.237 54.5088 30.5742 53.9998 32.2306 53.9998H44.6922C45.2922 53.9998 45.7755 53.8165 46.1422 53.4498C46.5089 53.0831 46.6922 52.5998 46.6922 51.9998C46.6922 51.3998 46.5089 50.9165 46.1422 50.5498C45.7755 50.1831 45.2922 49.9998 44.6922 49.9998H32.2306C29.5075 49.9998 27.237 50.9088 25.4191 52.7267C23.6012 54.5446 22.6922 56.8151 22.6922 59.5382V60.8459H13.8922ZM34.6922 14.7691C32.6461 14.7691 30.9038 14.0499 29.4653 12.6114C28.0268 11.1729 27.3076 9.43064 27.3076 7.3845C27.3076 5.33837 28.0268 3.59607 29.4653 2.1576C30.9038 0.719205 32.6461 0 34.6922 0C36.7383 0 38.4806 0.719205 39.9191 2.1576C41.3576 3.59607 42.0768 5.33837 42.0768 7.3845C42.0768 9.43064 41.3576 11.1729 39.9191 12.6114C38.4806 14.0499 36.7383 14.7691 34.6922 14.7691Z" fill="white"/>
</svg>
